#!OML:ASF F:\VICON\USERDATA\INSTALL\rory3\rory3.ASF
:FULLY-SPECIFIED
:DEGREES
97
root 11.9953 17.8451 -18.8179 -174.424 81.9785 -171.403
lowerback 10.2407 1.46373 -4.06549
upperback 0.37983 1.48437 -0.344444
thorax -5.4462 0.843372 1.70737
lowerneck -15.7023 -8.75171 -14.691
upperneck 31.4166 -11.9398 12.9185
head 15.4608 -4.93244 5.85558
rclavicle -1.78409e-014 9.54166e-015
rhumerus -39.0763 -23.5643 -72.955
rradius 31.5514
rwrist 8.07375
rhand -13.4264 10.6407
rfingers 7.12502
rthumb 12.6821 -18.9542
lclavicle -1.78409e-014 9.54166e-015
lhumerus -28.758 3.07002 80.1189
lradius 23.5856
lwrist -8.98904
lhand -19.0808 26.7417
lfingers 7.12502
lthumb 7.22713 56.5983
rfemur -5.25782 4.89483 5.05414
rtibia 30.1171
rfoot -2.73373 -8.59555
rtoes -5.79911
lfemur 1.15042 -4.2999 -13.0205
ltibia 18.1789
lfoot -9.98025 4.41092
ltoes -17.7696
98
root 12.005 17.8322 -18.7183 -176.518 81.8601 -173.639
lowerback 10.1827 1.42819 -4.42449
upperback 0.315326 1.39137 -0.439182
thorax -5.48259 0.8072 1.82421
lowerneck -15.6726 -8.80849 -14.555
upperneck 31.6239 -12.0244 12.7561
head 15.5433 -4.96769 5.75572
rclavicle -1.963e-015 -1.11319e-014
rhumerus -39.158 -23.3813 -73.0989
rradius 31.5601
rwrist 8.02037
rhand -13.4632 10.7297
rfingers 7.12502
rthumb 12.6466 -18.8674
lclavicle -1.963e-015 -1.11319e-014
lhumerus -28.8023 3.27248 79.8184
lradius 23.6766
lwrist -9.08768
lhand -19.0934 27.0675
lfingers 7.12502
lthumb 7.21501 56.9245
rfemur -5.29299 5.25606 4.97998
rtibia 30.2149
rfoot -3.50248 -8.64341
rtoes -8.33419
lfemur 0.893112 -4.58341 -13.0209
ltibia 18.3171
lfoot -9.97278 4.63172
ltoes -19.0473
99
root 12.0165 17.8193 -18.6097 -183.143 81.6475 -180.413
lowerback 10.1266 1.41691 -5.57573
upperback 0.290016 1.237 -0.674314
thorax -5.48873 0.760661 2.24813
lowerneck -15.5365 -8.79182 -14.4234
upperneck 31.6752 -12.0153 12.6437
head 15.5118 -4.96376 5.69038
rclavicle -5.19325e-015 -4.77083e-015
rhumerus -39.1697 -23.1331 -73.3087
rradius 31.6016
rwrist 7.78996
rhand -13.2701 10.9328
rfingers 7.12502
rthumb 12.8328 -18.6528
lclavicle -5.19325e-015 -4.77083e-015
lhumerus -28.7698 3.66968 79.4128
lradius 23.8108
lwrist -9.31508
lhand -18.3093 27.0356
lfingers 7.12502
lthumb 7.97185 56.8653
rfemur -5.26017 5.20158 4.16189
rtibia 30.2515
rfoot -4.28813 -8.60068
rtoes -10.7552
lfemur 0.578 -4.86713 -13.7435
ltibia 18.5188
lfoot -9.97448 4.72626
ltoes -19.2732
100
root 12.0308 17.8101 -18.5135 -182.337 81.5624 -179.643
lowerback 10.03 1.38179 -5.43572
upperback 0.295008 1.21372 -0.647765
thorax -5.42463 0.74399 2.20273
lowerneck -15.4045 -8.80093 -14.4502
upperneck 31.711 -12.0533 12.7028
head 15.5139 -4.97757 5.71991
rclavicle 2.82771e-014 -1.74931e-014
rhumerus -39.202 -23.3196 -73.2841
rradius 31.5773
rwrist 8.0274
rhand -12.8844 11.1229
rfingers 7.12502
rthumb 13.2046 -18.4389
lclavicle 2.82771e-014 -1.74931e-014
lhumerus -28.7157 3.58247 79.2779
lradius 23.9151
lwrist -8.95255
lhand -18.2421 27.2075
lfingers 7.12502
lthumb 8.03665 57.0347
rfemur -5.13722 5.05575 4.53906
rtibia 30.1938
rfoot -5.09421 -8.55324
rtoes -12.124
lfemur 0.350884 -4.89213 -13.276
ltibia 18.7678
lfoot -9.96344 4.77857
ltoes -20.1525
101
root 12.0402 17.7967 -18.4171 -179.949 81.4729 -177.061
lowerback 10.1845 1.34183 -4.96485
upperback 0.358104 1.21177 -0.557541
thorax -5.43601 0.731078 2.03135
lowerneck -15.2522 -8.85828 -14.5884
upperneck 31.74 -12.1592 12.8384
head 15.5391 -5.02543 5.78956
rclavicle 2.03754e-015 2.3059e-014
rhumerus -39.2626 -23.8044 -73.087
rradius 31.4959
rwrist 8.69581
rhand -12.5537 11.5516
rfingers 7.12502
rthumb 13.5234 -17.9892
lclavicle 2.03754e-015 2.3059e-014
lhumerus -28.6129 3.53271 79.1355
lradius 23.9135
lwrist -8.99316
lhand -18.441 27.1831
lfingers 7.12502
lthumb 7.84469 57.0176
rfemur -4.79692 4.91041 5.24633
rtibia 30.0741
rfoot -5.90419 -8.45016
rtoes -12.4707
lfemur 0.355636 -5.00495 -12.498
ltibia 19.0414
lfoot -9.81678 4.79349
ltoes -21.8033
102
root 12.0524 17.7856 -18.3161 -178.315 81.4019 -175.41
lowerback 10.1544 1.30742 -4.67688
upperback 0.354068 1.20285 -0.498545
thorax -5.41759 0.719179 1.93326
lowerneck -15.1358 -8.93096 -14.7044
upperneck 31.8754 -12.2665 12.8846
head 15.6147 -5.07923 5.82114
rclavicle 1.17034e-014 1.11319e-014
rhumerus -39.3229 -23.6751 -73.1899
rradius 31.5907
rwrist 8.83175
rhand -12.5215 11.6582
rfingers 7.12502
rthumb 13.5544 -17.8806
lclavicle 1.17034e-014 1.11319e-014
lhumerus -28.5615 3.89404 78.8399
lradius 23.8937
lwrist -9.43779
lhand -18.0099 26.8356
lfingers 7.12502
lthumb 8.26077 56.6541
rfemur -4.61177 4.52446 5.78562
rtibia 29.8769
rfoot -6.6526 -8.15987
rtoes -13.2501
lfemur 0.187047 -5.20946 -11.8566
ltibia 19.3796
lfoot -9.68733 4.87973
ltoes -23.4023
103
root 12.0648 17.7756 -18.2124 -178.42 81.2199 -175.622
lowerback 10.0562 1.18822 -4.67349
upperback 0.313018 1.04765 -0.505488
thorax -5.39464 0.642377 1.9484
lowerneck -15.0712 -8.91536 -14.7608
upperneck 32.0048 -12.2264 12.8522
head 15.6565 -5.07275 5.83555
rclavicle -4.5472e-015 3.97569e-015
rhumerus -39.1156 -22.5908 -73.9986
rradius 31.7614
rwrist 7.73432
rhand -13.4219 10.7223
rfingers 7.12502
rthumb 12.6865 -18.8724
lclavicle -4.5472e-015 3.97569e-015
lhumerus -28.5653 4.35451 78.5237
lradius 23.9833
lwrist -9.23454
lhand -17.6824 26.7094
lfingers 7.12502
lthumb 8.57681 56.5152
rfemur -4.49953 3.97726 6.02058
rtibia 29.6738
rfoot -7.38698 -7.91442
rtoes -14.1839
lfemur -0.109075 -5.47289 -11.5164
ltibia 19.6821
lfoot -9.64185 4.99154
ltoes -23.9823
104
root 12.0752 17.7658 -18.1014 -179.154 81.1018 -176.476
lowerback 9.9832 1.05878 -4.87767
upperback 0.239275 0.855151 -0.449989
thorax -5.42215 0.554548 2.15019
lowerneck -14.8654 -8.85986 -15.019
upperneck 32.0374 -12.0673 12.7933
head 15.6095 -5.05279 5.89342
rclavicle 2.72832e-014 -1.74931e-014
rhumerus -38.7768 -20.7059 -75.2992
rradius 32.1661
rwrist 4.60171
rhand -15.2086 8.65658
rfingers 7.12502
rthumb 10.9635 -21.0372
lclavicle 2.72832e-014 -1.74931e-014
lhumerus -28.6811 5.01963 78.2714
lradius 24.1407
lwrist -8.73747
lhand -17.5639 26.7024
lfingers 7.12502
lthumb 8.69117 56.5035
rfemur -4.426 3.59186 6.21037
rtibia 29.4906
rfoot -8.02837 -7.89102
rtoes -14.4812
lfemur -0.417913 -5.73368 -11.262
ltibia 19.9516
lfoot -9.63162 5.07857
ltoes -23.7467
105
root 12.0848 17.7607 -17.9913 -177.857 81.0691 -175.162
lowerback 10.0353 0.917151 -4.76449
upperback 0.158823 0.683446 -0.21264
thorax -5.52502 0.472052 2.35994
lowerneck -14.6389 -8.80164 -15.5666
upperneck 32.2127 -11.845 12.7918
head 15.6461 -5.03363 6.05229
rclavicle 2.17421e-014 -2.78299e-015
rhumerus -39.0926 -21.9222 -73.813
rradius 31.5075
rwrist 9.76925
rhand -11.9898 11.3077
rfingers 7.12502
rthumb 14.0668 -18.1963
lclavicle 2.17421e-014 -2.78299e-015
lhumerus -28.9256 5.96295 78.0777
lradius 24.2329
lwrist -8.9467
lhand -17.415 26.9139
lfingers 7.12502
lthumb 8.83486 56.709
rfemur -4.27971 3.17446 6.80822
rtibia 29.3206
rfoot -8.6455 -7.83894
rtoes -15.1486
lfemur -0.571421 -6.13882 -10.6485
ltibia 20.1634
lfoot -9.58707 5.19013
ltoes -22.2639
106
root 12.0933 17.7543 -17.8842 -177.412 80.9184 -174.693
lowerback 10.165 0.906198 -4.58119
upperback 0.106428 0.679046 -0.249137
thorax -5.65002 0.467734 2.21763
lowerneck -14.4855 -8.89089 -15.5219
upperneck 32.3736 -12.0287 12.8341
head 15.7275 -5.09939 6.04215
rclavicle 1.963e-015 -1.98785e-015
rhumerus -39.4165 -22.7643 -73.3065
rradius 31.2934
rwrist 11.7378
rhand -11.0715 12.5728
rfingers 7.12502
rthumb 14.9516 -16.8675
lclavicle 1.963e-015 -1.98785e-015
lhumerus -28.9318 5.71723 77.9244
lradius 24.3038
lwrist -8.94837
lhand -17.5784 27.1968
lfingers 7.12502
lthumb 8.67724 56.9984
rfemur -4.11569 2.4983 7.23988
rtibia 29.1876
rfoot -9.31203 -7.63436
rtoes -15.3018
lfemur -0.727044 -6.55529 -10.2148
ltibia 20.3058
lfoot -9.26889 5.39823
ltoes -21.9121
107
root 12.1016 17.7479 -17.7729 -177.689 80.7564 -175.052
lowerback 10.1833 0.966788 -4.49863
upperback 0.0739771 0.758564 -0.424396
thorax -5.69671 0.504023 1.9747
lowerneck -14.367 -9.05145 -15.1824
upperneck 32.4808 -12.3715 12.787
head 15.7877 -5.20449 5.90107
rclavicle -2.58669e-014 4.77083e-015
rhumerus -39.599 -23.1277 -73.4401
rradius 31.2668
rwrist 11.9661
rhand -11.0185 12.5794
rfingers 7.12502
rthumb 15.0026 -16.8571
lclavicle -2.58669e-014 4.77083e-015
lhumerus -28.7883 5.17219 77.748
lradius 24.4342
lwrist -8.69005
lhand -18.0483 27.2314
lfingers 7.12502
lthumb 8.22376 57.0513
rfemur -4.08076 1.83415 7.54944
rtibia 29.0848
rfoot -9.9675 -7.51785
rtoes -14.6172
lfemur -0.969759 -6.77642 -9.90258
ltibia 20.4297
lfoot -8.80975 5.60332
ltoes -22.8271
